<mxfile host="app.diagrams.net" modified="2023-10-12T02:48:00.534Z" agent="Mozilla/5.0 (Windows NT 10.0; Win64; x64) AppleWebKit/537.36 (KHTML, like Gecko) Chrome/117.0.0.0 Safari/537.36 Edg/117.0.2045.60" etag="KQ7ab251X5JKfPF4MC3B" version="22.0.4" type="github">
  <diagram name="第 1 页" id="gQF-vePxMycMf8BygkXZ">
    <mxGraphModel dx="746" dy="433" grid="1" gridSize="10" guides="1" tooltips="1" connect="1" arrows="1" fold="1" page="1" pageScale="1" pageWidth="827" pageHeight="1169" math="0" shadow="0">
      <root>
        <mxCell id="0" />
        <mxCell id="1" parent="0" />
        <mxCell id="Hm2AaKJUo_18V7iBOa_g-1" value="Student" style="shape=umlActor;verticalLabelPosition=bottom;verticalAlign=top;html=1;outlineConnect=0;" vertex="1" parent="1">
          <mxGeometry x="110" y="170" width="30" height="60" as="geometry" />
        </mxCell>
        <mxCell id="Hm2AaKJUo_18V7iBOa_g-4" value="Context" style="html=1;whiteSpace=wrap;align=left;verticalAlign=bottom;fontColor=#f4450b;" vertex="1" parent="1">
          <mxGeometry x="210" y="120" width="460" height="310" as="geometry" />
        </mxCell>
        <mxCell id="Hm2AaKJUo_18V7iBOa_g-5" value="Bill System" style="shape=umlActor;verticalLabelPosition=bottom;verticalAlign=top;html=1;outlineConnect=0;" vertex="1" parent="1">
          <mxGeometry x="110" y="300" width="30" height="60" as="geometry" />
        </mxCell>
        <mxCell id="Hm2AaKJUo_18V7iBOa_g-13" style="edgeStyle=orthogonalEdgeStyle;rounded=0;orthogonalLoop=1;jettySize=auto;html=1;entryX=0.5;entryY=0;entryDx=0;entryDy=0;" edge="1" parent="1" source="Hm2AaKJUo_18V7iBOa_g-6" target="Hm2AaKJUo_18V7iBOa_g-10">
          <mxGeometry relative="1" as="geometry" />
        </mxCell>
        <mxCell id="Hm2AaKJUo_18V7iBOa_g-6" value="Registrar" style="shape=umlActor;verticalLabelPosition=bottom;verticalAlign=top;html=1;outlineConnect=0;" vertex="1" parent="1">
          <mxGeometry x="384" y="20" width="30" height="60" as="geometry" />
        </mxCell>
        <mxCell id="Hm2AaKJUo_18V7iBOa_g-14" style="edgeStyle=orthogonalEdgeStyle;rounded=0;orthogonalLoop=1;jettySize=auto;html=1;" edge="1" parent="1" source="Hm2AaKJUo_18V7iBOa_g-7" target="Hm2AaKJUo_18V7iBOa_g-11">
          <mxGeometry relative="1" as="geometry" />
        </mxCell>
        <mxCell id="Hm2AaKJUo_18V7iBOa_g-15" style="edgeStyle=orthogonalEdgeStyle;rounded=0;orthogonalLoop=1;jettySize=auto;html=1;" edge="1" parent="1" source="Hm2AaKJUo_18V7iBOa_g-7" target="Hm2AaKJUo_18V7iBOa_g-12">
          <mxGeometry relative="1" as="geometry">
            <Array as="points">
              <mxPoint x="740" y="375" />
            </Array>
          </mxGeometry>
        </mxCell>
        <mxCell id="Hm2AaKJUo_18V7iBOa_g-7" value="Instructor" style="shape=umlActor;verticalLabelPosition=bottom;verticalAlign=top;html=1;outlineConnect=0;" vertex="1" parent="1">
          <mxGeometry x="720" y="225" width="30" height="60" as="geometry" />
        </mxCell>
        <mxCell id="Hm2AaKJUo_18V7iBOa_g-8" value="Registior For&amp;nbsp;&lt;br&gt;Courses" style="ellipse;whiteSpace=wrap;html=1;" vertex="1" parent="1">
          <mxGeometry x="260" y="280" width="140" height="70" as="geometry" />
        </mxCell>
        <mxCell id="Hm2AaKJUo_18V7iBOa_g-10" value="Maintain Course Information" style="ellipse;whiteSpace=wrap;html=1;" vertex="1" parent="1">
          <mxGeometry x="329" y="160" width="140" height="70" as="geometry" />
        </mxCell>
        <mxCell id="Hm2AaKJUo_18V7iBOa_g-11" value="Select Course To Teach" style="ellipse;whiteSpace=wrap;html=1;" vertex="1" parent="1">
          <mxGeometry x="480" y="220" width="140" height="70" as="geometry" />
        </mxCell>
        <mxCell id="Hm2AaKJUo_18V7iBOa_g-12" value="Request Enrollment List" style="ellipse;whiteSpace=wrap;html=1;" vertex="1" parent="1">
          <mxGeometry x="450" y="340" width="140" height="70" as="geometry" />
        </mxCell>
        <mxCell id="Hm2AaKJUo_18V7iBOa_g-16" style="edgeStyle=orthogonalEdgeStyle;rounded=0;orthogonalLoop=1;jettySize=auto;html=1;entryX=0.143;entryY=0.286;entryDx=0;entryDy=0;entryPerimeter=0;" edge="1" parent="1" source="Hm2AaKJUo_18V7iBOa_g-1" target="Hm2AaKJUo_18V7iBOa_g-8">
          <mxGeometry relative="1" as="geometry" />
        </mxCell>
        <mxCell id="Hm2AaKJUo_18V7iBOa_g-21" value="" style="endArrow=none;html=1;rounded=0;entryX=0;entryY=0.5;entryDx=0;entryDy=0;" edge="1" parent="1" source="Hm2AaKJUo_18V7iBOa_g-5" target="Hm2AaKJUo_18V7iBOa_g-8">
          <mxGeometry relative="1" as="geometry">
            <mxPoint x="380" y="290" as="sourcePoint" />
            <mxPoint x="540" y="290" as="targetPoint" />
          </mxGeometry>
        </mxCell>
      </root>
    </mxGraphModel>
  </diagram>
</mxfile>
